<svg xmlns="http://www.w3.org/2000/svg" xmlns:xlink="http://www.w3.org/1999/xlink" zoomAndPan="magnify" preserveAspectRatio="xMidYMid meet" version="1.0" viewBox="24.85 125.77 339.27 122.7"><defs><g/><clipPath id="22805ad697"><path d="M 274.835938 125.761719 L 364.097656 125.761719 L 364.097656 247.851562 L 274.835938 247.851562 Z M 274.835938 125.761719 " clip-rule="nonzero"/></clipPath><clipPath id="3533809676"><path d="M 308.160156 169.988281 L 338.804688 169.988281 L 338.804688 205.0625 L 308.160156 205.0625 Z M 308.160156 169.988281 " clip-rule="nonzero"/></clipPath><clipPath id="0488ccf7d1"><path d="M 338.804688 187.5 L 308.160156 205.011719 L 308.160156 169.988281 Z M 338.804688 187.5 " clip-rule="nonzero"/></clipPath><clipPath id="94a97ff4d6"><path d="M 274.835938 133.15625 L 353.839844 133.15625 L 353.839844 241.910156 L 274.835938 241.910156 Z M 274.835938 133.15625 " clip-rule="nonzero"/></clipPath></defs><g clip-path="url(#22805ad697)"><path fill="#000000" d="M 274.835938 147.796875 C 274.835938 140.488281 274.835938 133.183594 274.835938 125.789062 C 304.621094 146.171875 334.3125 166.46875 364.097656 186.851562 C 334.3125 207.148438 304.621094 227.441406 274.835938 247.828125 C 274.835938 240.519531 274.835938 233.214844 274.835938 226 L 332.042969 186.941406 Z M 274.835938 147.796875 " fill-opacity="1" fill-rule="nonzero"/></g><g fill="#000000" fill-opacity="1"><g transform="translate(18.741324, 248.457946)"><g><path d="M 128.511719 0 L 128.511719 -24.476562 L 30.597656 -24.476562 L 30.597656 -97.914062 L 128.511719 -97.914062 L 128.511719 -122.390625 L 30.597656 -122.390625 C 17.136719 -122.390625 6.121094 -111.375 6.121094 -97.914062 L 6.121094 -24.476562 C 6.121094 -11.015625 17.136719 0 30.597656 0 Z M 128.511719 0 "/></g></g></g><g fill="#000000" fill-opacity="1"><g transform="translate(143.779668, 248.457871)"><g><path d="M 128.511719 -122.390625 L 104.03125 -122.390625 L 104.03125 -110.152344 L 67.316406 -73.433594 L 30.597656 -110.152344 L 30.597656 -122.390625 L 6.121094 -122.390625 L 6.121094 -105.257812 C 6.121094 -101.890625 7.191406 -98.984375 9.792969 -96.382812 L 44.980469 -61.195312 L 9.792969 -26.007812 C 7.34375 -23.558594 6.121094 -20.5 6.121094 -17.136719 L 6.121094 0 L 30.597656 0 L 30.597656 -12.238281 L 67.316406 -48.957031 L 104.03125 -12.238281 L 104.03125 0 L 128.511719 0 L 128.511719 -17.136719 C 128.511719 -20.5 127.289062 -23.558594 124.839844 -26.007812 L 89.652344 -61.195312 L 124.839844 -96.382812 C 127.441406 -98.984375 128.511719 -101.890625 128.511719 -105.257812 Z M 128.511719 -122.390625 "/></g></g></g><g clip-path="url(#3533809676)"><g clip-path="url(#0488ccf7d1)"><path fill="#000000" d="M 338.804688 169.988281 L 338.804688 205.0625 L 308.160156 205.0625 L 308.160156 169.988281 Z M 338.804688 169.988281 " fill-opacity="1" fill-rule="nonzero"/></g></g><g fill="#000000" fill-opacity="1"><g transform="translate(53.301944, 200.050134)"><g><path d="M 22.753906 0 C 25.734375 0 28.109375 -2.441406 28.109375 -5.355469 L 28.109375 -21.414062 C 28.109375 -24.359375 25.699219 -26.769531 22.753906 -26.769531 L 6.691406 -26.769531 C 3.746094 -26.769531 1.339844 -24.359375 1.339844 -21.414062 L 1.339844 -5.355469 C 1.339844 -2.410156 3.746094 0 6.691406 0 Z M 6.691406 -21.414062 L 22.753906 -21.414062 L 22.753906 -5.355469 L 6.691406 -5.355469 Z M 6.691406 -21.414062 "/></g></g></g><g fill="#000000" fill-opacity="1"><g transform="translate(82.754061, 200.050134)"><g><path d="M 6.691406 0 L 6.691406 -17.632812 L 23.523438 -0.804688 C 24.027344 -0.300781 24.695312 0 25.429688 0 C 26.902344 0 28.109375 -1.203125 28.109375 -2.675781 L 28.109375 -26.769531 L 22.753906 -26.769531 L 22.753906 -9.136719 L 5.921875 -25.964844 C 5.421875 -26.46875 4.75 -26.769531 4.015625 -26.769531 C 2.542969 -26.769531 1.339844 -25.566406 1.339844 -24.09375 L 1.339844 0 Z M 6.691406 0 "/></g></g></g><g fill="#000000" fill-opacity="1"><g transform="translate(112.20618, 200.050134)"><g><path d="M 28.109375 -26.769531 L 1.339844 -26.769531 L 1.339844 -21.414062 L 12.046875 -21.414062 L 12.046875 0 L 17.402344 0 L 17.402344 -21.414062 L 28.109375 -21.414062 Z M 28.109375 -26.769531 "/></g></g></g><g fill="#000000" fill-opacity="1"><g transform="translate(141.658296, 200.050134)"><g><path d="M 28.109375 -26.769531 L 6.691406 -26.769531 C 3.746094 -26.769531 1.339844 -24.359375 1.339844 -21.414062 L 1.339844 -5.355469 C 1.339844 -2.410156 3.746094 0 6.691406 0 L 28.109375 0 L 28.109375 -5.355469 L 6.691406 -5.355469 L 6.691406 -10.707031 L 28.109375 -10.707031 L 28.109375 -16.0625 L 6.691406 -16.0625 L 6.691406 -21.414062 L 28.109375 -21.414062 Z M 28.109375 -26.769531 "/></g></g></g><g clip-path="url(#94a97ff4d6)"><path fill="#000000" d="M 274.835938 152.785156 C 274.835938 146.277344 274.835938 139.769531 274.835938 133.179688 C 301.199219 151.339844 327.476562 169.414062 353.839844 187.574219 C 327.476562 205.652344 301.199219 223.730469 274.835938 241.886719 C 274.835938 235.378906 274.835938 228.871094 274.835938 222.441406 L 325.46875 187.652344 Z M 274.835938 152.785156 " fill-opacity="1" fill-rule="nonzero"/></g></svg>